# xmcd
#
# Track frame offsets:
#	180
#	12441
#	25667
#	36493
#	50022
#	60570
#	74535
#	89013
#	105571
#	119251
#	131873
#	145435
#	157492
#	177529
#	189147
#	199234
#
# Disc length: 2808 seconds
#
# Revision: 0
# Processed by: cddbd v1.4PL0 Copyright (c) Steve Scherf et al.
# Submitted via: dBpowerAMP V4.0
#
DISCID=f80af610
DTITLE=Emeralds - ll Time Best
DYEAR=1900
DGENRE=
TTITLE0=Sherwood Swing
TTITLE1=Life In The Finland Woods
TTITLE2=Saxy
TTITLE3=Amazing Grace
TTITLE4=Fiesta Time
TTITLE5=Una Paloma Blanca
TTITLE6=In The Mood
TTITLE7=Blue Spanish Eyes
TTITLE8=Nepor's Theme
TTITLE9=Bird Dance
TTITLE10=My Promise
TTITLE11=Strolling
TTITLE12=Blue Danube Medley
TTITLE13=Jay's Polka - Gypsy Melody
TTITLE14=Ranger Waltz
TTITLE15=Be Happy
EXTD=
EXTT0=
EXTT1=
EXTT2=
EXTT3=
EXTT4=
EXTT5=
EXTT6=
EXTT7=
EXTT8=
EXTT9=
EXTT10=
EXTT11=
EXTT12=
EXTT13=
EXTT14=
EXTT15=
PLAYORDER=
